<svg width="18" height="19" viewBox="0 0 18 19" fill="none" xmlns="http://www.w3.org/2000/svg">
<path fill-rule="evenodd" clip-rule="evenodd" d="M0 9.50008C0 4.6906 3.89885 0.791748 8.70833 0.791748C13.5178 0.791748 17.4167 4.6906 17.4167 9.50008C17.4167 10.3668 16.9178 10.9303 16.33 11.2708C15.7871 11.5854 15.0969 11.758 14.4858 11.8903C14.2908 11.9325 14.1021 11.971 13.9191 12.0084C13.481 12.0978 13.075 12.1806 12.6924 12.2919C12.1436 12.4515 11.829 12.6231 11.6759 12.7959L11.0833 12.2709L11.6759 12.7959C11.4496 13.0513 11.3045 13.4159 11.2099 13.9135C11.1424 14.2685 11.1108 14.6176 11.0766 14.9961C11.0608 15.1711 11.0444 15.3523 11.0237 15.5433C10.9655 16.0791 10.8686 16.7363 10.5435 17.2603C10.369 17.5415 10.1262 17.791 9.79539 17.9642C9.469 18.135 9.10136 18.2084 8.70833 18.2084C3.89885 18.2084 0 14.3096 0 9.50008ZM8.70833 2.37508C4.7733 2.37508 1.58333 5.56505 1.58333 9.50008C1.58333 13.4351 4.7733 16.6251 8.70833 16.6251C8.90511 16.6251 9.00872 16.5888 9.0611 16.5614C9.10905 16.5363 9.15255 16.4989 9.19803 16.4256C9.31282 16.2406 9.39028 15.9183 9.44961 15.3722C9.46387 15.241 9.47715 15.0947 9.49128 14.9391C9.52856 14.5282 9.57175 14.0524 9.6544 13.6177C9.77244 12.997 9.99188 12.3091 10.4908 11.746C10.9564 11.2203 11.6439 10.9479 12.2502 10.7716C12.6992 10.641 13.2052 10.5377 13.6676 10.4433C13.836 10.4089 13.9987 10.3757 14.1507 10.3428C14.7703 10.2087 15.2335 10.0763 15.5363 9.90084C15.7941 9.75142 15.8333 9.63984 15.8333 9.50008C15.8333 5.56505 12.6434 2.37508 8.70833 2.37508ZM8.3125 5.54175C8.3125 4.44867 9.19858 3.56258 10.2917 3.56258C11.3847 3.56258 12.2708 4.44867 12.2708 5.54175C12.2708 6.63483 11.3847 7.52091 10.2917 7.52091C9.19858 7.52091 8.3125 6.63483 8.3125 5.54175ZM10.2917 5.14591C10.073 5.14591 9.89583 5.32312 9.89583 5.54175C9.89583 5.76038 10.073 5.93758 10.2917 5.93758C10.5103 5.93758 10.6875 5.76038 10.6875 5.54175C10.6875 5.32312 10.5103 5.14591 10.2917 5.14591ZM3.5625 7.12508C3.5625 6.032 4.44858 5.14591 5.54167 5.14591C6.63475 5.14591 7.52083 6.032 7.52083 7.12508C7.52083 8.21816 6.63475 9.10425 5.54167 9.10425C4.44858 9.10425 3.5625 8.21816 3.5625 7.12508ZM5.54167 6.72925C5.32304 6.72925 5.14583 6.90645 5.14583 7.12508C5.14583 7.34371 5.32304 7.52091 5.54167 7.52091C5.7603 7.52091 5.9375 7.34371 5.9375 7.12508C5.9375 6.90645 5.7603 6.72925 5.54167 6.72925ZM3.95833 12.2709C3.95833 11.1778 4.84442 10.2917 5.9375 10.2917C7.03058 10.2917 7.91667 11.1778 7.91667 12.2709C7.91667 13.364 7.03058 14.2501 5.9375 14.2501C4.84442 14.2501 3.95833 13.364 3.95833 12.2709ZM5.9375 11.8751C5.71887 11.8751 5.54167 12.0523 5.54167 12.2709C5.54167 12.4895 5.71887 12.6667 5.9375 12.6667C6.15613 12.6667 6.33333 12.4895 6.33333 12.2709C6.33333 12.0523 6.15613 11.8751 5.9375 11.8751Z" fill="#B783EB"/>
</svg>
