<svg width="12" height="19" viewBox="0 0 12 19" fill="none" xmlns="http://www.w3.org/2000/svg">
<path fill-rule="evenodd" clip-rule="evenodd" d="M1.73475 1.11777C1.88373 0.912938 2.12172 0.791748 2.375 0.791748H8.70833C8.96162 0.791748 9.19961 0.91294 9.34858 1.11778C8.66897 1.61204 8.70201 1.58801 9.34858 1.11778L9.35049 1.12041L9.35344 1.1245L9.36238 1.13704C9.36965 1.1473 9.37954 1.16139 9.39179 1.17915C9.41629 1.21466 9.45028 1.26494 9.49184 1.32892C9.57488 1.45676 9.68853 1.63994 9.81713 1.86983C10.0734 2.32801 10.3939 2.98026 10.6481 3.75628C10.8943 4.50745 11.0833 5.38977 11.0833 6.33341C11.0833 7.10969 10.9179 7.85461 10.6207 8.53148C9.86944 10.2431 8.2661 11.5366 6.33333 11.818V16.6251H9.5C9.93723 16.6251 10.2917 16.9795 10.2917 17.4167C10.2917 17.854 9.93723 18.2084 9.5 18.2084H1.58333C1.14611 18.2084 0.791667 17.854 0.791667 17.4167C0.791667 16.9795 1.14611 16.6251 1.58333 16.6251H4.75V11.819C2.90133 11.5545 1.34802 10.3776 0.559211 8.76186C0.200812 8.02763 0 7.20281 0 6.33341C0 5.27848 0.236303 4.29942 0.525434 3.49324C0.77751 2.79043 1.07518 2.20391 1.30994 1.79239C1.42768 1.58601 1.53058 1.42193 1.60553 1.30739C1.64303 1.25008 1.67362 1.20504 1.69568 1.17316C1.70671 1.15722 1.71561 1.14456 1.72219 1.1353L1.73029 1.12395L1.73299 1.12021L1.73399 1.11883L1.73475 1.11777ZM2.80404 2.37508C2.76763 2.43501 2.72771 2.50248 2.68522 2.57697C2.48431 2.92914 2.22979 3.43117 2.01582 4.02775M2.80404 2.37508H8.27929C8.32615 2.45222 8.37882 2.54184 8.4353 2.64281C8.65551 3.03647 8.92879 3.5939 9.14352 4.24927C9.29923 4.72449 9.42136 5.24278 9.47309 5.78154C9.22247 5.8569 8.89861 5.9394 8.53538 5.99675C7.66838 6.13364 6.70424 6.10772 5.94898 5.65457C4.72507 4.92022 3.31421 4.94614 2.30101 5.10612C2.08288 5.14056 1.87726 5.18215 1.68849 5.22634C1.76652 4.80383 1.88223 4.40024 2.01582 4.02775M1.98204 8.06723C1.80317 7.70078 1.67913 7.30236 1.62096 6.88207L1.98204 8.06723ZM1.62096 6.88207C1.87006 6.80759 2.18988 6.72662 2.54795 6.67008C3.41495 6.53319 4.37909 6.55911 5.13436 7.01226C6.35826 7.74661 7.76912 7.72069 8.78232 7.56071C8.97713 7.52995 9.16197 7.49349 9.33374 7.45457C9.28819 7.60497 9.23373 7.75201 9.17094 7.89505C8.55611 9.2958 7.15573 10.2917 5.54167 10.2917C3.97876 10.2917 2.62588 9.38599 1.98204 8.06723" fill="#B783EB"/>
</svg>
