<svg width="18" height="18" viewBox="0 0 18 18" fill="none" xmlns="http://www.w3.org/2000/svg">
<path fill-rule="evenodd" clip-rule="evenodd" d="M10.6861 2.95833C10.6861 1.42804 11.9266 0.1875 13.4569 0.1875C14.9872 0.1875 16.2278 1.42804 16.2278 2.95833C16.2278 4.48861 14.9872 5.72917 13.4569 5.72917C11.9266 5.72917 10.6861 4.48861 10.6861 2.95833ZM13.4569 1.77083C12.8011 1.77083 12.2694 2.3025 12.2694 2.95833C12.2694 3.61416 12.8011 4.14583 13.4569 4.14583C14.1128 4.14583 14.6444 3.61416 14.6444 2.95833C14.6444 2.3025 14.1128 1.77083 13.4569 1.77083ZM6.86579 3.79278C7.06245 3.72469 7.278 3.73677 7.46582 3.82641L11.8188 5.90398C12.0691 6.02346 12.2386 6.26522 12.2657 6.54127C12.2927 6.81732 12.1733 7.08739 11.9509 7.25316L8.50344 9.82306L11.9131 12.0676C12.0955 12.1877 12.2202 12.3779 12.2577 12.5931C12.2952 12.8083 12.242 13.0294 12.1109 13.2041L9.34336 16.8911C9.08088 17.2408 8.58464 17.3115 8.23496 17.049C7.88528 16.7865 7.81459 16.2903 8.07707 15.9406L10.3391 12.9271L6.68952 10.5246C6.4739 10.3826 6.34103 10.1445 6.33349 9.88644C6.32595 9.6284 6.4447 9.3829 6.65167 9.22861L9.95278 6.76782L7.07694 5.39524L4.21596 6.38586C3.8028 6.52892 3.35189 6.30996 3.20884 5.8968C3.06578 5.48364 3.28474 5.03274 3.6979 4.88968L6.86579 3.79278ZM17.2005 5.37145C17.4999 5.69009 17.4842 6.1911 17.1656 6.49049L14.7913 8.72141C14.5422 8.95541 14.1712 9.0032 13.871 8.83994L12.8095 8.26265C12.4254 8.05377 12.2833 7.57306 12.4922 7.18896C12.7011 6.80486 13.1818 6.66282 13.5659 6.87171L14.1244 7.17543L16.0814 5.3366C16.4001 5.03721 16.9011 5.05281 17.2005 5.37145ZM6.35501 10.8562C6.70326 11.1205 6.77124 11.6172 6.50687 11.9654L5.33136 13.5138C5.26567 13.6004 5.18286 13.6725 5.0881 13.7256L1.1791 15.9182C0.797763 16.1321 0.315236 15.9964 0.101342 15.615C-0.112552 15.2337 0.0231851 14.7512 0.404519 14.5373L4.16987 12.4253L5.24577 11.008C5.51015 10.6598 6.00677 10.5918 6.35501 10.8562Z" fill="#B783EB"/>
</svg>
