<svg width="19" height="18" viewBox="0 0 19 18" fill="none" xmlns="http://www.w3.org/2000/svg">
<path d="M6.33341 9.50008C6.77064 9.50008 7.12508 9.85452 7.12508 10.2917V11.0834H7.91675C8.35397 11.0834 8.70841 11.4379 8.70841 11.8751C8.70841 12.3123 8.35397 12.6667 7.91675 12.6667H7.12508V13.4584C7.12508 13.8956 6.77064 14.2501 6.33341 14.2501C5.89619 14.2501 5.54175 13.8956 5.54175 13.4584V12.6667H4.75008C4.31286 12.6667 3.95841 12.3123 3.95841 11.8751C3.95841 11.4379 4.31286 11.0834 4.75008 11.0834H5.54175V10.2917C5.54175 9.85452 5.89619 9.50008 6.33341 9.50008Z" fill="#B783EB"/>
<path fill-rule="evenodd" clip-rule="evenodd" d="M12.6667 9.50008C11.3551 9.50008 10.2917 10.5634 10.2917 11.8751C10.2917 13.1868 11.3551 14.2501 12.6667 14.2501C13.9784 14.2501 15.0417 13.1868 15.0417 11.8751C15.0417 10.5634 13.9784 9.50008 12.6667 9.50008ZM11.8751 11.8751C11.8751 11.4379 12.2295 11.0834 12.6667 11.0834C13.104 11.0834 13.4584 11.4379 13.4584 11.8751C13.4584 12.3123 13.104 12.6667 12.6667 12.6667C12.2295 12.6667 11.8751 12.3123 11.8751 11.8751Z" fill="#B783EB"/>
<path fill-rule="evenodd" clip-rule="evenodd" d="M12.6667 0.791748C13.104 0.791748 13.4584 1.14619 13.4584 1.58341V3.84532C13.4584 4.28255 13.104 4.63699 12.6667 4.63699H10.2917V6.33342H12.6667C15.7273 6.33342 18.2084 8.8145 18.2084 11.8751C18.2084 14.9357 15.7273 17.4167 12.6667 17.4167H6.33341C3.27284 17.4167 0.791748 14.9357 0.791748 11.8751C0.791748 8.8145 3.27284 6.33342 6.33341 6.33342H8.70841V3.84532C8.70841 3.40809 9.06285 3.05365 9.50008 3.05365H11.8751V1.58341C11.8751 1.14619 12.2295 0.791748 12.6667 0.791748ZM6.33341 7.91675C4.14729 7.91675 2.37508 9.68896 2.37508 11.8751C2.37508 14.0612 4.14729 15.8334 6.33341 15.8334H12.6667C14.8529 15.8334 16.6251 14.0612 16.6251 11.8751C16.6251 9.68896 14.8529 7.91675 12.6667 7.91675H6.33341Z" fill="#B783EB"/>
</svg>
