<svg width="16" height="18" viewBox="0 0 16 18" fill="none" xmlns="http://www.w3.org/2000/svg">
<path fill-rule="evenodd" clip-rule="evenodd" d="M15.136 0.961731C15.3264 1.11185 15.4375 1.34095 15.4375 1.58342V4.78342C15.4377 4.79466 15.4377 4.80587 15.4375 4.81705V13.6168C15.4375 14.841 14.4451 15.8334 13.2208 15.8334H11.6771C10.4747 15.8334 9.5 14.8587 9.5 13.6563C9.5 12.454 10.4747 11.4793 11.6771 11.4793H13.8542V5.80056L5.54167 7.76862V15.2001C5.54167 16.4243 4.54922 17.4168 3.325 17.4168H2.17708C0.974712 17.4168 0 16.442 0 15.2397C0 14.0373 0.974712 13.0626 2.17708 13.0626H3.95833V7.15863C3.95809 7.1474 3.95809 7.13621 3.95833 7.12504V3.95842C3.95833 3.59237 4.2093 3.27404 4.56525 3.18862L14.4611 0.813615C14.6969 0.757029 14.9456 0.811611 15.136 0.961731ZM5.54167 6.14152L13.8542 4.17345V2.58757L5.54167 4.58257V6.14152ZM3.95833 14.6459H2.17708C1.84916 14.6459 1.58333 14.9118 1.58333 15.2397C1.58333 15.5676 1.84916 15.8334 2.17708 15.8334H3.325C3.67477 15.8334 3.95833 15.5499 3.95833 15.2001V14.6459ZM13.8542 13.0626H11.6771C11.3492 13.0626 11.0833 13.3284 11.0833 13.6563C11.0833 13.9843 11.3492 14.2501 11.6771 14.2501H13.2208C13.5706 14.2501 13.8542 13.9665 13.8542 13.6168V13.0626Z" fill="#B783EB"/>
</svg>
