<svg width="15" height="19" viewBox="0 0 15 19" fill="none" xmlns="http://www.w3.org/2000/svg">
<path fill-rule="evenodd" clip-rule="evenodd" d="M7.125 2.37508C6.03193 2.37508 5.14583 3.26118 5.14583 4.35425V4.75008H9.10417V4.35425C9.10417 3.26118 8.21807 2.37508 7.125 2.37508ZM10.6875 4.75008V4.35425C10.6875 2.38674 9.09252 0.791748 7.125 0.791748C5.15748 0.791748 3.5625 2.38674 3.5625 4.35425V4.75008H1.58333C0.708882 4.75008 0 5.45896 0 6.33341V16.6251C0 17.4995 0.708883 18.2084 1.58333 18.2084H12.6667C13.5411 18.2084 14.25 17.4995 14.25 16.6251V6.33341C14.25 5.45896 13.5411 4.75008 12.6667 4.75008H10.6875ZM9.10417 6.33341V7.12508C9.10417 7.56231 9.45861 7.91675 9.89583 7.91675C10.3331 7.91675 10.6875 7.56231 10.6875 7.12508V6.33341H12.6667V16.6251H1.58333V6.33341H3.5625V7.12508C3.5625 7.56231 3.91694 7.91675 4.35417 7.91675C4.79139 7.91675 5.14583 7.56231 5.14583 7.12508V6.33341H9.10417Z" fill="#B783EB"/>
</svg>
