<svg width="14" height="19" viewBox="0 0 14 19" fill="none" xmlns="http://www.w3.org/2000/svg">
<path fill-rule="evenodd" clip-rule="evenodd" d="M3.16667 4.35425C3.16667 2.38674 4.76165 0.791748 6.72917 0.791748C8.69669 0.791748 10.2917 2.38674 10.2917 4.35425V9.50008C10.2917 11.4676 8.69668 13.0626 6.72917 13.0626C4.76165 13.0626 3.16667 11.4676 3.16667 9.50008V4.35425ZM6.72917 2.37508C5.6361 2.37508 4.75 3.26118 4.75 4.35425V9.50008C4.75 10.5931 5.6361 11.4792 6.72917 11.4792C7.82223 11.4792 8.70833 10.5931 8.70833 9.50008V4.35425C8.70833 3.26118 7.82223 2.37508 6.72917 2.37508ZM0.791667 8.31258C1.22889 8.31258 1.58333 8.66702 1.58333 9.10425C1.58333 11.9462 3.88719 14.2501 6.72917 14.2501C9.57114 14.2501 11.875 11.9462 11.875 9.10425C11.875 8.66702 12.2294 8.31258 12.6667 8.31258C13.1039 8.31258 13.4583 8.66702 13.4583 9.10425C13.4583 12.5528 10.8642 15.3955 7.52083 15.7873V17.4167C7.52083 17.854 7.16639 18.2084 6.72917 18.2084C6.29194 18.2084 5.9375 17.854 5.9375 17.4167V15.7873C2.59415 15.3955 0 12.5528 0 9.10425C0 8.66702 0.354441 8.31258 0.791667 8.31258Z" fill="#B783EB"/>
</svg>
