<svg width="18" height="19" viewBox="0 0 18 19" fill="none" xmlns="http://www.w3.org/2000/svg">
<path fill-rule="evenodd" clip-rule="evenodd" d="M0 9.50008C0 4.6906 3.89885 0.791748 8.70833 0.791748C13.5178 0.791748 17.4167 4.6906 17.4167 9.50008C17.4167 9.71004 17.3333 9.91141 17.1848 10.0599L9.26813 17.9765C8.95896 18.2857 8.4577 18.2857 8.14854 17.9765L0.231874 10.0599C0.0834075 9.91141 0 9.71004 0 9.50008ZM1.79313 7.77684C1.81832 7.76196 1.84337 7.74741 1.86827 7.73318C2.33178 7.46831 2.82606 7.26902 3.31061 7.26902C3.79515 7.26902 4.28943 7.46831 4.75294 7.73318C5.07875 7.91935 5.42879 8.16112 5.8017 8.45297C6.70161 7.70317 7.67216 7.26902 8.70833 7.26902C9.74451 7.26902 10.7151 7.70317 11.615 8.45297C11.9879 8.16112 12.3379 7.91935 12.6637 7.73318C13.1272 7.46831 13.6215 7.26902 14.1061 7.26902C14.5906 7.26902 15.0849 7.46831 15.5484 7.73318C15.5733 7.74741 15.5983 7.76197 15.6235 7.77685C14.8529 4.67439 12.0492 2.37508 8.70833 2.37508C5.36751 2.37508 2.56372 4.67439 1.79313 7.77684ZM15.4426 9.56289C15.1887 9.37256 14.9623 9.22189 14.7628 9.10789C14.3867 8.89296 14.1813 8.85235 14.1061 8.85235C14.0308 8.85235 13.8254 8.89296 13.4493 9.10789C13.1247 9.29337 12.7291 9.5759 12.2592 9.96838L10.6718 14.3337L15.4426 9.56289ZM8.70833 15.1002L10.664 9.72203C9.93872 9.09896 9.28865 8.85235 8.70833 8.85235C8.12801 8.85235 7.47795 9.09896 6.75264 9.72203L8.70833 15.1002ZM5.15745 9.96838C4.6876 9.5759 4.29196 9.29337 3.96739 9.10789C3.59125 8.89296 3.38582 8.85235 3.31061 8.85235C3.23539 8.85235 3.02996 8.89296 2.65382 9.10789C2.45433 9.22189 2.22798 9.37256 1.97406 9.56289L6.74482 14.3337L5.15745 9.96838Z" fill="#B783EB"/>
</svg>
