<svg width="18" height="15" viewBox="0 0 18 15" fill="none" xmlns="http://www.w3.org/2000/svg">
<path d="M4.75012 10.2708C5.80067 10.2708 6.60508 10.4639 7.83446 10.9854L8.2871 11.1833L8.78159 11.4097L9.5088 11.7496L9.92754 11.9382C9.99402 11.9675 10.0589 11.9957 10.1224 12.0228L10.4864 12.1735C11.3574 12.5201 11.9525 12.6458 12.6668 12.6458C13.4175 12.6458 14.2521 12.4454 15.0941 12.1086C15.3944 11.9885 15.6735 11.8597 15.9229 11.7314L16.1356 11.6182L16.2178 11.5711C16.5927 11.3461 17.079 11.4677 17.304 11.8426C17.5289 12.2175 17.4073 12.7038 17.0324 12.9288L16.8178 13.0511L16.5512 13.1902C16.3085 13.3116 16.0155 13.4454 15.6822 13.5787C14.6687 13.9841 13.6479 14.2291 12.6668 14.2291C11.6162 14.2291 10.8118 14.0359 9.58244 13.5145L9.1298 13.3166L8.63532 13.0901L7.9081 12.7502L7.48936 12.5616C7.42288 12.5324 7.35798 12.5042 7.29454 12.477L6.93049 12.3263C6.05949 11.9797 5.46443 11.8541 4.75012 11.8541C3.99945 11.8541 3.16484 12.0544 2.32278 12.3912C2.02248 12.5113 1.7434 12.6401 1.49402 12.7684L1.28135 12.8816L1.1991 12.9288C0.824178 13.1537 0.337888 13.0321 0.112938 12.6572C-0.112013 12.2823 0.00955948 11.796 0.384477 11.5711L0.599087 11.4487L0.865683 11.3097C1.10846 11.1882 1.40143 11.0545 1.73475 10.9211C2.74817 10.5158 3.76902 10.2708 4.75012 10.2708Z" fill="#B783EB"/>
<path d="M4.75012 5.52075C5.80067 5.52075 6.60508 5.71394 7.83446 6.23538L8.2871 6.43327L8.78159 6.65973L9.5088 6.99964L9.92754 7.18822C9.99402 7.21748 10.0589 7.24567 10.1224 7.27283L10.4864 7.4235C11.3574 7.77014 11.9525 7.89575 12.6668 7.89575C13.4175 7.89575 14.2521 7.69545 15.0941 7.35863C15.3944 7.2385 15.6735 7.1097 15.9229 6.98145L16.1356 6.8682L16.2178 6.82107C16.5927 6.59612 17.079 6.71769 17.304 7.09261C17.5289 7.46753 17.4073 7.95382 17.0324 8.17877L16.8178 8.30114L16.5512 8.44018C16.3085 8.56164 16.0155 8.69539 15.6822 8.82871C14.6687 9.23408 13.6479 9.47909 12.6668 9.47909C11.6162 9.47909 10.8118 9.2859 9.58244 8.76446L9.1298 8.56657L8.63532 8.34011L7.9081 8.0002L7.48936 7.81161C7.42288 7.78236 7.35798 7.75417 7.29454 7.72701L6.93049 7.57634C6.05949 7.2297 5.46443 7.10409 4.75012 7.10409C3.99945 7.10409 3.16484 7.30439 2.32278 7.64121C2.02248 7.76134 1.7434 7.89014 1.49402 8.01839L1.28135 8.13164L1.1991 8.17877C0.824178 8.40372 0.337888 8.28215 0.112938 7.90723C-0.112013 7.53231 0.00955948 7.04602 0.384477 6.82107L0.599087 6.6987L0.865683 6.55966C1.10846 6.4382 1.40143 6.30445 1.73475 6.17113C2.74817 5.76576 3.76902 5.52075 4.75012 5.52075Z" fill="#B783EB"/>
<path d="M4.75012 0.770752C5.80067 0.770752 6.60508 0.963943 7.83446 1.48538L8.2871 1.68327L8.78159 1.90973L9.5088 2.24964L9.92754 2.43822C9.99402 2.46748 10.0589 2.49567 10.1224 2.52282L10.4864 2.6735C11.3574 3.02014 11.9525 3.14575 12.6668 3.14575C13.4175 3.14575 14.2521 2.94545 15.0941 2.60862C15.3944 2.4885 15.6735 2.3597 15.9229 2.23145L16.1356 2.1182L16.2178 2.07107C16.5927 1.84612 17.079 1.96769 17.304 2.34261C17.5289 2.71753 17.4073 3.20382 17.0324 3.42877L16.8178 3.55114L16.5512 3.69018C16.3085 3.81164 16.0155 3.94539 15.6822 4.07871C14.6687 4.48408 13.6479 4.72909 12.6668 4.72909C11.6162 4.72909 10.8118 4.53589 9.58244 4.01446L9.1298 3.81657L8.63532 3.59011L7.9081 3.2502L7.48936 3.06161C7.42288 3.03236 7.35798 3.00416 7.29454 2.97701L6.93049 2.82634C6.05949 2.4797 5.46443 2.35409 4.75012 2.35409C3.99945 2.35409 3.16484 2.55439 2.32278 2.89121C2.02248 3.01134 1.7434 3.14014 1.49402 3.26839L1.28135 3.38164L1.1991 3.42877C0.824178 3.65372 0.337888 3.53215 0.112938 3.15723C-0.112013 2.78231 0.00955948 2.29602 0.384477 2.07107L0.599087 1.9487L0.865683 1.80965C1.10846 1.68819 1.40143 1.55445 1.73475 1.42112C2.74817 1.01576 3.76902 0.770752 4.75012 0.770752Z" fill="#B783EB"/>
</svg>
