<svg width="18" height="18" viewBox="0 0 18 18" fill="none" xmlns="http://www.w3.org/2000/svg">
<path fill-rule="evenodd" clip-rule="evenodd" d="M13.8542 2.37508C13.1983 2.37508 12.6667 2.90674 12.6667 3.56258C12.6667 4.21842 13.1983 4.75008 13.8542 4.75008C14.51 4.75008 15.0417 4.21842 15.0417 3.56258C15.0417 2.90674 14.51 2.37508 13.8542 2.37508ZM11.0833 3.56258C11.0833 2.03229 12.3239 0.791748 13.8542 0.791748C15.3845 0.791748 16.625 2.03229 16.625 3.56258C16.625 5.09287 15.3845 6.33342 13.8542 6.33342C12.3239 6.33342 11.0833 5.09287 11.0833 3.56258ZM6.34031 3.16678C6.65736 3.16957 6.94216 3.36126 7.0641 3.65393L10.2092 11.2022L11.124 8.45807C11.2217 8.16476 11.4813 7.95521 11.7886 7.92148C12.0959 7.88774 12.3948 8.036 12.5539 8.30111L17.3039 16.2178C17.4506 16.4623 17.4544 16.7669 17.3139 17.0151C17.1734 17.2633 16.9102 17.4167 16.625 17.4167H0.791669C0.524501 17.4167 0.275354 17.282 0.12912 17.0584C-0.0171148 16.8348 -0.0407083 16.5525 0.066378 16.3078L5.60804 3.6411C5.73513 3.35062 6.02326 3.16399 6.34031 3.16678ZM2.00214 15.8334H15.2268L12.0817 10.5917L11.0427 13.7088C10.9383 14.022 10.6505 14.2375 10.3206 14.2496C9.99065 14.2616 9.68788 14.0677 9.5609 13.7629L6.31558 5.97413L2.00214 15.8334Z" fill="#B783EB"/>
</svg>
