<svg width="23" height="14" viewBox="0 0 23 14" fill="none" xmlns="http://www.w3.org/2000/svg">
<path d="M22.3638 6.83333C22.3638 7.28439 22.0206 7.65717 21.5753 7.71616L21.4516 7.7243L11.4789 7.72415L11.4781 12.7743C11.4781 13.4343 10.7774 13.8508 10.1885 13.5858L10.0796 13.5281L0.42605 7.58714C-0.14184 7.23765 -0.14184 6.42901 0.42605 6.07953L10.0796 0.13859C10.6871 -0.235242 11.4781 0.191142 11.4781 0.892396L11.4789 5.94127L21.4516 5.94237C21.9554 5.94237 22.3638 6.34127 22.3638 6.83333ZM9.65468 11.1583L9.65388 6.85105C9.65376 6.84516 9.6537 6.83925 9.6537 6.83333L9.65501 6.81842L9.65468 2.50646L2.62461 6.83298L9.65468 11.1583Z" fill="white"/>
</svg>
