<svg width="22" height="20" viewBox="0 0 22 20" fill="none" xmlns="http://www.w3.org/2000/svg">
<path fill-rule="evenodd" clip-rule="evenodd" d="M10.9998 8.89403C10.3268 8.89403 9.69531 9.14539 9.20872 9.61794C8.73248 10.0804 8.47366 10.6937 8.48401 11.3271V11.3372C8.48401 11.9907 8.74284 12.604 9.21907 13.0665C9.69531 13.529 10.3268 13.7804 10.9998 13.7804C12.3871 13.7804 13.5052 12.6845 13.5155 11.3372C13.5155 10.6837 13.2567 10.0704 12.7805 9.60788C12.3042 9.14539 11.6727 8.89403 10.9998 8.89403ZM16.808 8.96441C16.2904 8.96441 15.8762 8.56224 15.8762 8.05953C15.8762 7.55682 16.2904 7.1446 16.808 7.1446C17.3256 7.1446 17.7501 7.55682 17.7501 8.05953C17.7501 8.56224 17.3256 8.96441 16.808 8.96441ZM13.8678 14.1323C13.1327 14.8461 12.1182 15.2885 11 15.2885C9.91298 15.2885 8.8984 14.8763 8.12193 14.1323C7.35581 13.3782 6.93134 12.3929 6.93134 11.3372C6.92098 10.2916 7.34546 9.30625 8.11157 8.55219C8.88804 7.79812 9.91298 7.3859 11 7.3859C12.0871 7.3859 13.112 7.79812 13.8782 8.54213C14.6443 9.2962 15.0687 10.2916 15.0687 11.3372C15.0584 12.4331 14.6029 13.4184 13.8678 14.1323ZM16.839 4.31937C16.7458 4.31937 16.6733 4.2691 16.6319 4.19872L16.5284 3.97753C16.2489 3.40444 15.9279 2.74086 15.7312 2.3588C15.255 1.45393 14.4371 0.951216 13.4329 0.941162H8.55662C7.55238 0.951216 6.74485 1.45393 6.26862 2.3588C6.06156 2.76097 5.70956 3.48487 5.41968 4.07807L5.35756 4.19872C5.3265 4.27915 5.24368 4.31937 5.16085 4.31937C2.6658 4.31937 0.646973 6.28999 0.646973 8.703V14.6752C0.646973 17.0882 2.6658 19.0588 5.16085 19.0588H16.839C19.3237 19.0588 21.3529 17.0882 21.3529 14.6752V8.703C21.3529 6.28999 19.3237 4.31937 16.839 4.31937Z" fill="white"/>
</svg>
