<svg width="17" height="19" viewBox="0 0 17 19" fill="none" xmlns="http://www.w3.org/2000/svg">
<path d="M16.4454 8.99854C16.8024 9.51037 17 10.1375 17 10.7899C17 11.8251 16.4666 12.805 15.6081 13.3514C15.3871 13.4921 15.1355 13.5661 14.8793 13.5658H9.7835L9.911 16.3993C9.94075 17.0841 9.71763 17.7342 9.28413 18.2299C9.07138 18.4743 8.81472 18.6686 8.53 18.8011C8.24527 18.9335 7.93854 19.0012 7.62875 19C6.52375 19 5.54625 18.193 5.253 17.038L3.42762 9.86773H3.42125L3.42125 0H13.4576C13.6531 0 13.8444 0.0415001 14.0208 0.1245C15.0322 0.592525 15.6846 1.6646 15.6846 2.85426C15.6846 3.14476 15.6464 3.43065 15.5699 3.70731C15.9269 4.21914 16.1245 4.84625 16.1245 5.49872C16.1245 5.78922 16.0863 6.07511 16.0098 6.35177C16.3668 6.8636 16.5644 7.49071 16.5644 8.14318C16.5601 8.43368 16.5219 8.72187 16.4454 8.99854ZM0 9.12995L0 0.737774C0 0.329693 0.303875 0 0.68 0H2.06125L2.06125 9.86773H0.68C0.303875 9.86773 0 9.53803 0 9.12995Z" fill="url(#paint0_linear_52396_16147)"/>
<defs>
<linearGradient id="paint0_linear_52396_16147" x1="6.82055" y1="15.5084" x2="13.0517" y2="4.909" gradientUnits="userSpaceOnUse">
<stop stop-color="white"/>
<stop offset="1" stop-color="#FFEBED"/>
</linearGradient>
</defs>
</svg>
