<svg width="18" height="20" viewBox="0 0 18 20" fill="none" xmlns="http://www.w3.org/2000/svg">
<path d="M11.0196 16.5611C11.0196 18.4611 12.5325 20 14.3992 20C16.2648 20 17.7778 18.4611 17.7778 16.5611C17.7778 14.6623 16.2648 13.1223 14.3992 13.1223C12.5325 13.1223 11.0196 14.6623 11.0196 16.5611ZM12.958 8.08329C12.958 8.9155 13.6217 9.59106 14.4393 9.59106C15.2558 9.59106 15.9206 8.9155 15.9206 8.08329L15.9206 1.50777C15.9206 0.675551 15.2558 -6.66853e-07 14.4393 -6.31161e-07C13.6217 -5.95422e-07 12.958 0.675551 12.958 1.50777L12.958 8.08329ZM1.50318e-07 3.43887C2.33369e-07 5.33886 1.51298 6.87774 3.37856 6.87774C5.24523 6.87774 6.75821 5.33886 6.75821 3.43887C6.75821 1.53999 5.24523 -2.29276e-07 3.37856 -1.47682e-07C1.51298 -6.61346e-08 6.73152e-08 1.53999 1.50318e-07 3.43887ZM1.89833 18.4933C1.89833 19.3244 2.56203 20 3.37856 20C4.19618 20 4.85989 19.3244 4.85989 18.4933L4.85989 11.9178C4.85989 11.0856 4.19618 10.4101 3.37856 10.4101C2.56203 10.4101 1.89833 11.0856 1.89833 11.9178L1.89833 18.4933Z" fill="url(#paint0_linear_52396_16156)"/>
<defs>
<linearGradient id="paint0_linear_52396_16156" x1="4.37114e-07" y1="10" x2="17.7778" y2="10" gradientUnits="userSpaceOnUse">
<stop stop-color="white"/>
<stop offset="1" stop-color="#BADAFF"/>
</linearGradient>
</defs>
</svg>
