<svg width="23" height="23" viewBox="0 0 23 23" fill="none" xmlns="http://www.w3.org/2000/svg">
<path fill-rule="evenodd" clip-rule="evenodd" d="M22.8645 9.72777L22.7462 9.23542H11.8381V13.7646H18.3555C17.6789 16.9168 14.5389 18.5761 11.9741 18.5761C10.108 18.5761 8.1408 17.806 6.83877 16.5682C5.45138 15.2282 4.66435 13.4018 4.65129 11.4918C4.65129 9.58402 5.52523 7.67574 6.79691 6.42049C8.06858 5.16525 9.98917 4.46292 11.8988 4.46292C14.0857 4.46292 15.6531 5.60214 16.2392 6.1217L19.5199 2.92018C18.5575 2.09054 15.9137 0 11.7931 0C8.61388 0 5.56553 1.19467 3.33722 3.3735C1.13823 5.51897 0 8.62141 0 11.5C0 14.3786 1.077 17.326 3.20796 19.4884C5.48494 21.7946 8.70965 23 12.0301 23C15.0513 23 17.9149 21.8387 19.9558 19.7317C21.9623 17.6576 23 14.7878 23 11.7793C23 10.5127 22.8702 9.76062 22.8645 9.72777Z" fill="white"/>
</svg>
