<svg width="9" height="22" viewBox="0 0 9 22" fill="none" xmlns="http://www.w3.org/2000/svg">
<path d="M8.72845 18.9983L8.44397 20.1983C7.59052 20.545 6.90948 20.8072 6.40086 20.985C5.89224 21.1717 5.30172 21.265 4.62931 21.265C3.59483 21.265 2.78879 21.0072 2.21121 20.4917C1.64224 19.9672 1.35776 19.305 1.35776 18.505C1.35776 18.1939 1.37931 17.8783 1.42241 17.5583C1.46552 17.2295 1.53448 16.8606 1.62931 16.4517L2.68966 12.5583C2.78448 12.185 2.86207 11.8339 2.92241 11.505C2.99138 11.1672 3.02586 10.8606 3.02586 10.585C3.02586 10.0872 2.92672 9.74057 2.72845 9.54502C2.53017 9.34946 2.15086 9.25168 1.59052 9.25168C1.31466 9.25168 1.03017 9.29613 0.737069 9.38501C0.452586 9.4739 0.206897 9.55835 0 9.63835L0.284483 8.43835C0.982759 8.14501 1.65086 7.89613 2.28879 7.69168C2.92672 7.47835 3.53017 7.37168 4.09914 7.37168C5.125 7.37168 5.91379 7.62946 6.46552 8.14501C7.02586 8.65168 7.30603 9.3139 7.30603 10.1317C7.30603 10.3006 7.28448 10.5983 7.24138 11.025C7.2069 11.4517 7.13793 11.8428 7.03448 12.1983L5.97414 16.0783C5.88793 16.3895 5.81034 16.745 5.74138 17.145C5.67241 17.545 5.63793 17.8472 5.63793 18.0517C5.63793 18.5672 5.75 18.9183 5.97414 19.105C6.19828 19.2917 6.58621 19.385 7.13793 19.385C7.39655 19.385 7.68966 19.3406 8.01724 19.2517C8.34483 19.1539 8.5819 19.0695 8.72845 18.9983ZM9 2.71835C9 3.3939 8.75 3.97168 8.25 4.45168C7.75862 4.92279 7.16379 5.15835 6.46552 5.15835C5.76724 5.15835 5.1681 4.92279 4.6681 4.45168C4.1681 3.97168 3.9181 3.3939 3.9181 2.71835C3.9181 2.04279 4.1681 1.46501 4.6681 0.985015C5.1681 0.505015 5.76724 0.265015 6.46552 0.265015C7.16379 0.265015 7.75862 0.505015 8.25 0.985015C8.75 1.46501 9 2.04279 9 2.71835Z" fill="url(#paint0_linear_52396_16150)"/>
<defs>
<linearGradient id="paint0_linear_52396_16150" x1="3.61088" y1="4.12414" x2="11.3303" y2="10.4138" gradientUnits="userSpaceOnUse">
<stop stop-color="white"/>
<stop offset="1" stop-color="#FFEBED"/>
</linearGradient>
</defs>
</svg>
