<svg width="17" height="19" viewBox="0 0 17 19" fill="none" xmlns="http://www.w3.org/2000/svg">
<path d="M16.4454 10.0015C16.8024 9.48963 17 8.86253 17 8.21006C17 7.17487 16.4666 6.19501 15.6081 5.6486C15.3871 5.50795 15.1355 5.43392 14.8793 5.43418H9.7835L9.911 2.60067C9.94075 1.91592 9.71763 1.26576 9.28413 0.770069C9.07138 0.525746 8.81472 0.331354 8.53 0.198905C8.24527 0.066457 7.93854 -0.0012335 7.62875 1.70153e-05C6.52375 1.70153e-05 5.54625 0.806957 5.253 1.96203L3.42762 9.13227H3.42125L3.42125 19H13.4576C13.6531 19 13.8444 18.9585 14.0208 18.8755C15.0322 18.4075 15.6846 17.3354 15.6846 16.1457C15.6846 15.8552 15.6464 15.5694 15.5699 15.2927C15.9269 14.7809 16.1245 14.1537 16.1245 13.5013C16.1245 13.2108 16.0863 12.9249 16.0098 12.6482C16.3668 12.1364 16.5644 11.5093 16.5644 10.8568C16.5601 10.5663 16.5219 10.2781 16.4454 10.0015ZM0 9.87005L0 18.2622C0 18.6703 0.303875 19 0.68 19H2.06125L2.06125 9.13227H0.68C0.303875 9.13227 0 9.46197 0 9.87005Z" fill="url(#paint0_linear_52396_16141)"/>
<defs>
<linearGradient id="paint0_linear_52396_16141" x1="6.82055" y1="3.49159" x2="13.0517" y2="14.091" gradientUnits="userSpaceOnUse">
<stop stop-color="white"/>
<stop offset="1" stop-color="#FFEBED"/>
</linearGradient>
</defs>
</svg>
