<svg width="29" height="25" viewBox="0 0 29 25" fill="none" xmlns="http://www.w3.org/2000/svg">
<path d="M8.45234 21.6347C9.02248 21.5071 12.5059 21.4631 13.0792 21.5762C13.5693 21.6823 14.1011 21.938 14.1085 22.5109C14.087 23.0567 13.7715 23.5443 13.3311 23.8571C12.7606 24.3112 12.088 24.6028 11.3823 24.7137C10.992 24.7691 10.6079 24.7751 10.2299 24.7283C9.52053 24.6353 8.84068 24.3608 8.25987 23.92C7.81044 23.6197 7.48263 23.1402 7.44725 22.5951C7.43993 22.0222 7.96507 21.7531 8.45234 21.6347ZM10.5829 2.00415C12.9617 1.97408 15.4059 3.06631 16.8731 4.91123C17.825 6.09911 18.2699 7.29225 18.2937 9.15542L18.2999 9.64012C18.3181 11.069 18.7085 11.9064 19.5562 12.8664C20.1984 13.5734 20.4124 14.4887 20.4251 15.4844C20.4378 16.479 20.1214 17.4274 19.4732 18.2023C18.6234 19.1322 17.416 19.7342 16.1773 19.8519C14.3824 20.027 12.586 20.178 10.7642 20.2011C8.94119 20.2241 7.14335 20.1701 5.34389 19.9888C4.10149 19.9025 2.87905 19.3312 2.00696 18.4231C1.33912 17.6648 0.997464 16.7248 0.984761 15.7302C0.972044 14.7344 1.16376 13.814 1.78654 13.091C2.63564 12.1096 2.97948 11.2629 2.96123 9.83402L2.95504 9.34932C2.9306 7.43573 3.39423 6.17839 4.36624 4.94098C5.81182 3.13602 8.15189 2.03489 10.4806 2.00545L10.5829 2.00415Z" fill="url(#paint0_linear_52396_16159)"/>
<path d="M22.1881 12.1789C25.1147 12.1789 27.5003 9.81648 27.5003 6.88619C27.5003 3.95589 25.1147 1.59351 22.1881 1.59351C19.2616 1.59351 16.876 3.95589 16.876 6.88619C16.876 9.81648 19.2616 12.1789 22.1881 12.1789Z" fill="white" stroke="#130133" stroke-width="3"/>
<defs>
<linearGradient id="paint0_linear_52396_16159" x1="10.5312" y1="2.00481" x2="10.8189" y2="24.7591" gradientUnits="userSpaceOnUse">
<stop stop-color="white"/>
<stop offset="1" stop-color="#BADAFF"/>
</linearGradient>
</defs>
</svg>
