<svg width="218" height="122" viewBox="0 0 218 122" fill="none" xmlns="http://www.w3.org/2000/svg">
<path d="M0.838867 75.6536V37.2349H16.4808C20.2129 37.2349 23.4693 38.0582 26.2501 39.7047C29.0675 41.3146 31.2445 43.5648 32.7813 46.4554C34.3546 49.3459 35.1413 52.6756 35.1413 56.4443C35.1413 60.2495 34.3546 63.5975 32.7813 66.488C31.2445 69.342 29.0858 71.5922 26.305 73.2387C23.5242 74.8486 20.2495 75.6536 16.4808 75.6536H0.838867ZM16.2063 44.4247H8.74214V68.4638H16.2063C19.6091 68.4638 22.2802 67.3844 24.2194 65.2257C26.1586 63.0669 27.1282 60.1398 27.1282 56.4443C27.1282 52.7853 26.1403 49.8765 24.1645 47.7177C22.2253 45.5224 19.5726 44.4247 16.2063 44.4247Z" fill="white"/>
<path d="M53.018 76.2024C49.9079 76.2024 47.182 75.5621 44.8403 74.2815C42.4986 73.0009 40.6691 71.2446 39.3519 69.0127C38.0713 66.7807 37.431 64.2195 37.431 61.3289C37.431 58.3286 38.053 55.6942 39.297 53.4256C40.5776 51.1205 42.3156 49.3094 44.511 47.9921C46.7429 46.6749 49.3042 46.0163 52.1947 46.0163C54.7926 46.0163 57.116 46.6566 59.165 47.9373C61.2506 49.1813 62.8605 50.8827 63.9948 53.0415C65.1656 55.2002 65.7144 57.67 65.6413 60.4508L65.5864 62.8108H44.7305C45.133 64.8964 46.1209 66.5429 47.6942 67.7503C49.3042 68.9578 51.3349 69.5615 53.7864 69.5615C55.1036 69.5615 56.2927 69.3603 57.3538 68.9578C58.4515 68.5553 59.6223 67.8418 60.8664 66.8173L64.4887 71.8666C62.9154 73.257 61.1042 74.3364 59.0552 75.1048C57.0428 75.8366 55.0304 76.2024 53.018 76.2024ZM52.2496 52.4926C48.115 52.4926 45.627 54.3587 44.7854 58.0908H58.5064V57.8712C58.3966 56.2979 57.738 55.0173 56.5306 54.0294C55.3597 53.0049 53.9327 52.4926 52.2496 52.4926Z" fill="white"/>
<path d="M79.0295 76.2024C76.3585 76.2024 73.9802 75.7634 71.8946 74.8852C69.809 74.0071 68.1259 72.7631 66.8453 71.1531L71.5653 67.1466C72.663 68.3541 73.907 69.2322 75.2974 69.781C76.6878 70.2933 78.0965 70.5494 79.5235 70.5494C80.6577 70.5494 81.5725 70.2933 82.2677 69.781C82.9628 69.2688 83.3104 68.5553 83.3104 67.6406C83.3104 66.8356 82.9811 66.1953 82.3225 65.7196C81.6639 65.2806 80.0906 64.7317 77.6025 64.0731C73.907 63.1218 71.2909 61.8229 69.7541 60.1764C68.4003 58.7128 67.7234 56.9016 67.7234 54.7429C67.7234 53.0232 68.2357 51.523 69.2602 50.2424C70.2847 48.9252 71.6385 47.9007 73.3216 47.1689C75.0047 46.4371 76.8341 46.0712 78.81 46.0712C81.0785 46.0712 83.219 46.4737 85.2314 47.2787C87.2438 48.0836 88.9269 49.1813 90.2807 50.5717L86.2193 55.0173C85.1948 54.066 84.0056 53.2793 82.6518 52.6573C81.3346 51.9987 80.1089 51.6694 78.9746 51.6694C76.3402 51.6694 75.023 52.5841 75.023 54.4136C75.0596 55.2917 75.4621 55.9869 76.2304 56.4991C76.9622 57.0114 78.627 57.6151 81.2249 58.3103C84.7008 59.225 87.1523 60.4325 88.5793 61.9326C89.8233 63.2133 90.4454 64.9147 90.4454 67.0368C90.4454 68.7931 89.9331 70.3665 88.9086 71.7569C87.9207 73.1472 86.5669 74.2449 84.8472 75.0499C83.1275 75.8183 81.1883 76.2024 79.0295 76.2024Z" fill="white"/>
<path d="M96.7724 75.6536V53.4256H91.284V46.6749H96.7724V39.2656H104.237V46.6749H110.329V53.4256H104.237V75.6536H96.7724Z" fill="white"/>
<path d="M113.984 75.6536V46.6749H121.503V75.6536H113.984Z" fill="white"/>
<path d="M127.688 75.6536V46.6749H134.933L135.042 50.5717C136.03 49.2545 137.347 48.1751 138.994 47.3335C140.64 46.492 142.36 46.0712 144.153 46.0712C150.812 46.0712 154.142 50.0228 154.142 57.9261V75.6536H146.678V58.475C146.678 54.3404 144.94 52.3463 141.464 52.4926C139.671 52.4926 138.171 53.0415 136.963 54.1391C135.792 55.2368 135.207 56.5906 135.207 58.2005V75.6536H127.688Z" fill="white"/>
<path d="M173.141 76.2024C170.031 76.2024 167.305 75.5621 164.963 74.2815C162.621 73.0009 160.792 71.2446 159.475 69.0127C158.194 66.7807 157.554 64.2195 157.554 61.3289C157.554 58.3286 158.176 55.6942 159.42 53.4256C160.7 51.1205 162.438 49.3094 164.634 47.9921C166.866 46.6749 169.427 46.0163 172.317 46.0163C174.915 46.0163 177.239 46.6566 179.288 47.9373C181.373 49.1813 182.983 50.8827 184.118 53.0415C185.288 55.2002 185.837 57.67 185.764 60.4508L185.709 62.8108H164.853C165.256 64.8964 166.244 66.5429 167.817 67.7503C169.427 68.9578 171.458 69.5615 173.909 69.5615C175.226 69.5615 176.415 69.3603 177.477 68.9578C178.574 68.5553 179.745 67.8418 180.989 66.8173L184.611 71.8666C183.038 73.257 181.227 74.3364 179.178 75.1048C177.166 75.8366 175.153 76.2024 173.141 76.2024ZM172.372 52.4926C168.238 52.4926 165.75 54.3587 164.908 58.0908H178.629V57.8712C178.519 56.2979 177.861 55.0173 176.653 54.0294C175.482 53.0049 174.055 52.4926 172.372 52.4926Z" fill="white"/>
<path d="M200.854 76.2024C198.292 76.2024 196.006 75.5621 193.993 74.2815C191.981 72.9643 190.389 71.1714 189.218 68.9029C188.084 66.6344 187.517 64.0548 187.517 61.1643C187.517 58.2371 188.084 55.6393 189.218 53.3708C190.389 51.1022 191.981 49.3276 193.993 48.047C196.006 46.7298 198.292 46.0712 200.854 46.0712C202.61 46.0712 204.275 46.4188 205.848 47.114C207.458 47.8092 208.757 48.7056 209.745 49.8033V35.0396H217.264V75.6536H210.129L210.019 72.1959C209.068 73.3302 207.769 74.2815 206.122 75.0499C204.476 75.8183 202.72 76.2024 200.854 76.2024ZM202.5 69.9457C204.732 69.9457 206.543 69.1407 207.934 67.5308C209.324 65.8843 210.019 63.7621 210.019 61.1643C210.019 58.5298 209.324 56.4077 207.934 54.7977C206.543 53.1512 204.732 52.328 202.5 52.328C200.268 52.328 198.457 53.1512 197.067 54.7977C195.676 56.4077 194.981 58.5298 194.981 61.1643C194.981 63.7621 195.676 65.8843 197.067 67.5308C198.457 69.1407 200.268 69.9457 202.5 69.9457Z" fill="white"/>
<g filter="url(#filter0_di_52396_15776)">
<path d="M117.394 33.6754C108.349 28.0508 103.139 25.0446 102.515 19.7197C102.021 15.5023 105.083 12.9226 105.149 12.8533C110.004 8.46094 115.33 11.4329 116.614 12.5026C117.554 11.0675 121.833 6.52726 127.525 8.95884C128.353 9.30976 131.114 10.7357 131.853 14.1869C133.12 20.1696 127.204 26.2206 121.31 33.0209C120.814 33.598 120.138 33.9454 119.431 34.066C118.74 34.1842 118.016 34.0615 117.394 33.6754Z" fill="url(#paint0_linear_52396_15776)"/>
</g>
<g filter="url(#filter1_f_52396_15776)">
<circle cx="110.093" cy="17.7793" r="2.89192" transform="rotate(-10.4187 110.093 17.7793)" fill="#FFA9B7"/>
</g>
<path d="M107.886 13.7755C106.352 14.5189 103.766 16.8162 105.699 20.0584C105.776 18.6605 106.322 15.4469 107.886 13.7755Z" fill="#FF748D"/>
<path d="M15.7314 110.069C14.6045 110.069 13.5653 109.872 12.614 109.477C11.6627 109.081 10.8358 108.533 10.1333 107.83C9.44539 107.113 8.90387 106.271 8.50871 105.305C8.12818 104.34 7.93791 103.278 7.93791 102.122C7.93791 100.981 8.12818 99.9269 8.50871 98.9609C8.90387 97.9949 9.44539 97.1607 10.1333 96.4582C10.8358 95.741 11.6627 95.1849 12.614 94.7897C13.5653 94.3946 14.6045 94.197 15.7314 94.197C16.8437 94.197 17.8756 94.3946 18.8269 94.7897C19.7782 95.1849 20.5978 95.741 21.2857 96.4582C21.9882 97.1753 22.5297 98.0169 22.9102 98.9828C23.3054 99.9488 23.503 100.995 23.503 102.122C23.503 103.264 23.3054 104.318 22.9102 105.284C22.5297 106.249 21.9882 107.091 21.2857 107.808C20.5978 108.525 19.7782 109.081 18.8269 109.477C17.8756 109.872 16.8437 110.069 15.7314 110.069ZM15.7314 107.062C16.6096 107.062 17.3926 106.85 18.0805 106.425C18.7683 106.001 19.3025 105.415 19.6831 104.669C20.0782 103.922 20.2758 103.074 20.2758 102.122C20.2758 101.171 20.0782 100.329 19.6831 99.5975C19.3025 98.8511 18.7683 98.2657 18.0805 97.8413C17.3926 97.4022 16.6096 97.1827 15.7314 97.1827C14.8386 97.1827 14.0483 97.3949 13.3604 97.8193C12.6726 98.2437 12.131 98.8292 11.7359 99.5756C11.3553 100.322 11.1651 101.171 11.1651 102.122C11.1651 103.088 11.3553 103.944 11.7359 104.691C12.131 105.423 12.6726 106.001 13.3604 106.425C14.0483 106.85 14.8386 107.062 15.7314 107.062ZM26.2654 109.85V98.2584H29.1632L29.2071 99.8171C29.6023 99.2902 30.1292 98.8584 30.7878 98.5218C31.4464 98.1852 32.1343 98.0169 32.8514 98.0169C35.5151 98.0169 36.847 99.5975 36.847 102.759V109.85H33.8613V102.978C33.8613 101.325 33.1661 100.527 31.7757 100.585C31.0585 100.585 30.4585 100.805 29.9755 101.244C29.5072 101.683 29.273 102.225 29.273 102.869V109.85H26.2654ZM40.0997 109.85V93.6042H43.0854V109.85H40.0997ZM48.2933 95.8435C47.7079 95.8435 47.2469 95.6971 46.9103 95.4044C46.5883 95.1117 46.4273 94.7092 46.4273 94.197C46.4273 93.6994 46.5883 93.2969 46.9103 92.9895C47.2469 92.6822 47.7079 92.5285 48.2933 92.5285C48.8788 92.5285 49.3325 92.6749 49.6545 92.9676C49.9764 93.2603 50.1374 93.6701 50.1374 94.197C50.1374 94.68 49.9691 95.0751 49.6325 95.3825C49.3105 95.6898 48.8641 95.8435 48.2933 95.8435ZM46.8005 109.85V98.2584H49.8081V109.85H46.8005ZM53.3797 109.85V98.2584H56.2776L56.3215 99.8171C56.7166 99.2902 57.2435 98.8584 57.9021 98.5218C58.5607 98.1852 59.2486 98.0169 59.9658 98.0169C62.6295 98.0169 63.9613 99.5975 63.9613 102.759V109.85H60.9756V102.978C60.9756 101.325 60.2804 100.527 58.89 100.585C58.1729 100.585 57.5728 100.805 57.0898 101.244C56.6215 101.683 56.3873 102.225 56.3873 102.869V109.85H53.3797ZM72.6585 110.069C71.4145 110.069 70.3241 109.813 69.3874 109.301C68.4507 108.789 67.719 108.086 67.1921 107.193C66.6798 106.301 66.4237 105.276 66.4237 104.12C66.4237 102.92 66.6725 101.866 67.1701 100.959C67.6824 100.037 68.3776 99.3122 69.2557 98.7853C70.1485 98.2584 71.173 97.9949 72.3292 97.9949C73.3683 97.9949 74.2977 98.2511 75.1173 98.7633C75.9515 99.2609 76.5955 99.9415 77.0492 100.805C77.5176 101.668 77.7371 102.656 77.7078 103.769L77.6859 104.713H69.3435C69.5045 105.547 69.8997 106.206 70.529 106.689C71.173 107.172 71.9853 107.413 72.9659 107.413C73.4927 107.413 73.9684 107.333 74.3928 107.172C74.8319 107.011 75.3003 106.725 75.7979 106.315L77.2468 108.335C76.6175 108.891 75.893 109.323 75.0734 109.63C74.2684 109.923 73.4635 110.069 72.6585 110.069ZM72.3512 100.585C70.6973 100.585 69.7021 101.332 69.3655 102.825H74.8539V102.737C74.81 102.108 74.5465 101.595 74.0635 101.2C73.5952 100.79 73.0244 100.585 72.3512 100.585ZM87.5797 109.85V94.4824H93.8365C95.3293 94.4824 96.6319 94.8117 97.7442 95.4703C98.8712 96.1143 99.742 97.0143 100.357 98.1706C100.986 99.3268 101.301 100.659 101.301 102.166C101.301 103.688 100.986 105.027 100.357 106.184C99.742 107.325 98.8785 108.225 97.7662 108.884C96.6538 109.528 95.344 109.85 93.8365 109.85H87.5797ZM93.7267 97.3583H90.741V106.974H93.7267C95.0878 106.974 96.1562 106.542 96.9319 105.679C97.7076 104.815 98.0955 103.644 98.0955 102.166C98.0955 100.703 97.7003 99.539 96.91 98.6755C96.1343 97.7974 95.0732 97.3583 93.7267 97.3583ZM108.429 110.069C107.463 110.069 106.593 109.806 105.817 109.279C105.041 108.752 104.419 108.035 103.951 107.128C103.497 106.22 103.27 105.188 103.27 104.032C103.27 102.847 103.497 101.808 103.951 100.915C104.419 100.007 105.049 99.2975 105.839 98.7853C106.644 98.273 107.551 98.0169 108.561 98.0169C109.381 98.0169 110.098 98.1852 110.713 98.5218C111.327 98.8438 111.818 99.2682 112.183 99.7951V98.2584H115.169V109.85H112.162V108.291C111.752 108.803 111.218 109.228 110.559 109.564C109.915 109.901 109.205 110.069 108.429 110.069ZM109.242 107.457C110.134 107.457 110.859 107.142 111.415 106.513C111.971 105.884 112.249 105.057 112.249 104.032C112.249 103.008 111.971 102.181 111.415 101.551C110.859 100.922 110.134 100.607 109.242 100.607C108.364 100.607 107.646 100.922 107.09 101.551C106.549 102.181 106.278 103.008 106.278 104.032C106.278 105.057 106.549 105.884 107.09 106.513C107.646 107.142 108.364 107.457 109.242 107.457ZM119.679 109.85V100.959H117.484V98.2584H119.679V95.2947H122.665V98.2584H125.102V100.959H122.665V109.85H119.679ZM129.154 95.8435C128.569 95.8435 128.108 95.6971 127.771 95.4044C127.449 95.1117 127.288 94.7092 127.288 94.197C127.288 93.6994 127.449 93.2969 127.771 92.9895C128.108 92.6822 128.569 92.5285 129.154 92.5285C129.74 92.5285 130.194 92.6749 130.516 92.9676C130.838 93.2603 130.999 93.6701 130.999 94.197C130.999 94.68 130.83 95.0751 130.494 95.3825C130.172 95.6898 129.725 95.8435 129.154 95.8435ZM127.662 109.85V98.2584H130.669V109.85H127.662ZM134.241 109.85V98.2584H137.139L137.183 99.8171C137.578 99.2902 138.105 98.8584 138.763 98.5218C139.422 98.1852 140.11 98.0169 140.827 98.0169C143.491 98.0169 144.822 99.5975 144.822 102.759V109.85H141.837V102.978C141.837 101.325 141.142 100.527 139.751 100.585C139.034 100.585 138.434 100.805 137.951 101.244C137.483 101.683 137.248 102.225 137.248 102.869V109.85H134.241ZM153.3 114.899C152.407 114.899 151.515 114.76 150.622 114.482C149.744 114.219 149.026 113.875 148.47 113.45L149.524 111.277C149.978 111.613 150.512 111.877 151.127 112.067C151.756 112.257 152.393 112.353 153.037 112.353C155.305 112.353 156.439 111.284 156.439 109.147V108.247C156.074 108.716 155.561 109.111 154.903 109.433C154.259 109.74 153.578 109.894 152.861 109.894C151.793 109.894 150.834 109.645 149.985 109.147C149.151 108.635 148.492 107.94 148.009 107.062C147.526 106.169 147.285 105.152 147.285 104.01C147.285 102.854 147.519 101.822 147.987 100.915C148.47 100.007 149.129 99.2975 149.963 98.7853C150.797 98.273 151.734 98.0169 152.773 98.0169C153.549 98.0169 154.266 98.1779 154.925 98.4999C155.598 98.8072 156.132 99.1804 156.527 99.6195L156.571 98.2584H159.447V108.994C159.447 110.882 158.898 112.338 157.801 113.362C156.717 114.387 155.217 114.899 153.3 114.899ZM153.388 107.435C154.339 107.435 155.1 107.12 155.671 106.491C156.256 105.862 156.549 105.042 156.549 104.032C156.549 103.008 156.256 102.181 155.671 101.551C155.086 100.907 154.325 100.585 153.388 100.585C152.466 100.585 151.712 100.907 151.127 101.551C150.556 102.195 150.27 103.022 150.27 104.032C150.27 105.042 150.556 105.862 151.127 106.491C151.712 107.12 152.466 107.435 153.388 107.435ZM168.291 109.85L174.307 94.4824H177.161L183.154 109.85H179.905L178.653 106.535H172.682L171.431 109.85H168.291ZM174.592 101.486L173.67 103.944H177.688L176.744 101.442C176.656 101.222 176.553 100.937 176.436 100.585C176.319 100.22 176.187 99.8317 176.041 99.4219C175.909 99.0121 175.792 98.6243 175.69 98.2584C175.514 98.7999 175.331 99.3561 175.141 99.9269C174.951 100.498 174.768 101.017 174.592 101.486ZM185.158 114.68V98.2584H188.055L188.099 99.6634C188.48 99.1951 188.999 98.8072 189.658 98.4999C190.317 98.1925 191.012 98.0388 191.744 98.0388C192.753 98.0388 193.654 98.295 194.444 98.8072C195.234 99.3195 195.856 100.029 196.31 100.937C196.764 101.844 196.991 102.876 196.991 104.032C196.991 105.188 196.764 106.22 196.31 107.128C195.856 108.035 195.234 108.752 194.444 109.279C193.654 109.791 192.753 110.047 191.744 110.047C191.056 110.047 190.39 109.908 189.746 109.63C189.102 109.338 188.582 108.972 188.187 108.533V114.68H185.158ZM191.085 107.457C191.978 107.457 192.702 107.142 193.258 106.513C193.815 105.869 194.093 105.042 194.093 104.032C194.093 103.037 193.815 102.225 193.258 101.595C192.702 100.951 191.978 100.629 191.085 100.629C190.192 100.629 189.468 100.944 188.912 101.573C188.355 102.203 188.077 103.022 188.077 104.032C188.077 105.042 188.355 105.869 188.912 106.513C189.468 107.142 190.192 107.457 191.085 107.457ZM199.591 114.68V98.2584H202.489L202.533 99.6634C202.913 99.1951 203.433 98.8072 204.092 98.4999C204.75 98.1925 205.445 98.0388 206.177 98.0388C207.187 98.0388 208.087 98.295 208.878 98.8072C209.668 99.3195 210.29 100.029 210.744 100.937C211.197 101.844 211.424 102.876 211.424 104.032C211.424 105.188 211.197 106.22 210.744 107.128C210.29 108.035 209.668 108.752 208.878 109.279C208.087 109.791 207.187 110.047 206.177 110.047C205.489 110.047 204.823 109.908 204.179 109.63C203.535 109.338 203.016 108.972 202.621 108.533V114.68H199.591ZM205.519 107.457C206.411 107.457 207.136 107.142 207.692 106.513C208.248 105.869 208.526 105.042 208.526 104.032C208.526 103.037 208.248 102.225 207.692 101.595C207.136 100.951 206.411 100.629 205.519 100.629C204.626 100.629 203.901 100.944 203.345 101.573C202.789 102.203 202.511 103.022 202.511 104.032C202.511 105.042 202.789 105.869 203.345 106.513C203.901 107.142 204.626 107.457 205.519 107.457Z" fill="white"/>
<defs>
<filter id="filter0_di_52396_15776" x="95.1431" y="0.937767" width="49.079" height="45.3678" filterUnits="userSpaceOnUse" color-interpolation-filters="sRGB">
<feFlood flood-opacity="0" result="BackgroundImageFix"/>
<feColorMatrix in="SourceAlpha" type="matrix" values="0 0 0 0 0 0 0 0 0 0 0 0 0 0 0 0 0 0 127 0" result="hardAlpha"/>
<feOffset dx="2.43928" dy="2.43928"/>
<feGaussianBlur stdDeviation="4.87857"/>
<feColorMatrix type="matrix" values="0 0 0 0 0.952941 0 0 0 0 0.27451 0 0 0 0 0.388235 0 0 0 0.3 0"/>
<feBlend mode="normal" in2="BackgroundImageFix" result="effect1_dropShadow_52396_15776"/>
<feBlend mode="normal" in="SourceGraphic" in2="effect1_dropShadow_52396_15776" result="shape"/>
<feColorMatrix in="SourceAlpha" type="matrix" values="0 0 0 0 0 0 0 0 0 0 0 0 0 0 0 0 0 0 127 0" result="hardAlpha"/>
<feOffset dx="-3.65892" dy="-4.87857"/>
<feGaussianBlur stdDeviation="5.48839"/>
<feComposite in2="hardAlpha" operator="arithmetic" k2="-1" k3="1"/>
<feColorMatrix type="matrix" values="0 0 0 0 0.854167 0 0 0 0 0.138802 0 0 0 0 0.353412 0 0 0 1 0"/>
<feBlend mode="normal" in2="shape" result="effect2_innerShadow_52396_15776"/>
</filter>
<filter id="filter1_f_52396_15776" x="101.708" y="9.39418" width="16.7705" height="16.7702" filterUnits="userSpaceOnUse" color-interpolation-filters="sRGB">
<feFlood flood-opacity="0" result="BackgroundImageFix"/>
<feBlend mode="normal" in="SourceGraphic" in2="BackgroundImageFix" result="shape"/>
<feGaussianBlur stdDeviation="2.74639" result="effect1_foregroundBlur_52396_15776"/>
</filter>
<linearGradient id="paint0_linear_52396_15776" x1="113.902" y1="14.5069" x2="122.99" y2="27.8543" gradientUnits="userSpaceOnUse">
<stop stop-color="#FF5A90"/>
<stop offset="1" stop-color="#FF2C6B"/>
</linearGradient>
</defs>
</svg>
